<?xml version="1.0" encoding="utf-8"?>
<!-- Generator: Adobe Illustrator 21.1.0, SVG Export Plug-In . SVG Version: 6.00 Build 0)  -->
<svg version="1.1" id="Layer_1" xmlns="http://www.w3.org/2000/svg" xmlns:xlink="http://www.w3.org/1999/xlink" x="0px" y="0px"
	 viewBox="0 0 264 66" style="enable-background:new 0 0 264 66;" xml:space="preserve">
<style type="text/css">
	.st0{fill:#31393F;}
</style>
<g id="Layer_2">
	<g id="Layer_1-2">
		<g id="Footer_2">
			<g>
				<path class="st0" d="M169.5,30.5c0,0,29.4-13.1,53-13.1c3.4-0.1,17.8-1.4,41.6,4.6c0,0-3.5-4.9-30.4-8.4c0,0,3-2.4-1-8.5
					c0.3-1.7,0.9-4.2,6.4-4.5c0,0-23.7-2.6-43.4,4.4c0,0,31.1-5.2,31.1,1.8s-28.7,7.1-32.9,6c0,0,1.9,2.3,1.7,3.7
					C195.6,16.5,180.8,22,169.5,30.5z"/>
			</g>
			<g>
				<path class="st0" d="M245.4,38.9c0,5.6-6.3,6.7-10.1,6.9c0.1,1.7,1.4,2.4,3.8,2.4c1.7-0.1,3.4-0.6,4.8-1.6l1.7,4.2
					c-2.2,1.5-4.8,2.2-7.4,2.2c-5.4,0-9.4-3.3-9.4-9.1c0-5.6,3.3-11,9.9-11C242.8,32.9,245.4,34.8,245.4,38.9z M238.4,37.4
					c-1.9,0-3.2,1.9-3.3,4.5c2.1-0.1,4.8-1.1,4.8-3c0.1-0.8-0.5-1.5-1.3-1.5C238.5,37.4,238.4,37.4,238.4,37.4L238.4,37.4z"/>
			</g>
			<g>
				<path class="st0" d="M254.3,25.6v19.8c0,1.7,0.4,2.5,1.7,2.5c0.8-0.1,1.5-0.3,2.2-0.7l1.4,4.3c-1.6,0.9-3.5,1.4-5.4,1.4
					c-6,0-6.3-3.4-6.3-7.1V25.6H254.3z"/>
			</g>
			<g>
				<path class="st0" d="M211.8,48.1l8.8-10.1h-6.6c-2.6,0-2.6-4.4-2.6-4.4H228V38l-8.9,10.1h6.7c3.1,0,2.4,4.4,2.4,4.4h-16.4V48.1z
					"/>
			</g>
			<g>
				<path class="st0" d="M182.7,33c-5.7,0-9.7,3.3-9.7,9.7c0,4.5,2.5,8,5.7,9l0,0c1.8,0.4,3.7,0.4,5.5-0.1V53c0,0.7,0,1.3,0,1.8
					c0.1,1.1-0.5,2.1-1.4,2.7c-0.6,0.4-1.4,0.6-2.1,0.6c-1.7,0-4.3-0.4-5.4-1.1l-1.1,3.8c2.3,1.1,4.8,1.6,7.3,1.6
					c3.3,0,5.5-1.1,6.9-2.9c1.1-1.7,1.7-3.7,1.8-5.7c0-0.2,0-0.4,0.1-0.6c0.1-1,0.1-3.2,0.1-4.1V34.5C187.9,33.5,185.3,33,182.7,33z
					 M184.1,45.6c0.1,1.3-0.8,2.4-2.1,2.5c-0.1,0-0.2,0-0.2,0c-2.4,0-2.8-2.8-2.8-5.6c0-2.6,1.1-5.2,3.6-5.2c0.5,0,1,0.1,1.5,0.2
					V45.6z"/>
			</g>
			<g>
				<path class="st0" d="M209.2,48.5l0.4,4h-5.2l-0.3-1.7h-0.2c-1.1,1.6-2.9,2.4-4.8,2.3c-5.7,0-7.1-4.5-7.1-9.2
					c0-6.5,3.3-10.9,10-10.9c2.5,0.1,4.9,0.6,7.2,1.5L209.2,48.5z M203,37.6c-0.5-0.2-1.1-0.3-1.7-0.3c-2.4,0-3.2,2.9-3.2,6.1
					c0,2.8,0.5,5.2,2.7,5.2c1.2,0.1,2.2-0.8,2.2-2c0,0,0-0.1,0-0.1V37.6z"/>
			</g>
			<g>
				<path class="st0" d="M0.2,63.8c0,0,20.3-15.6,58.8-13.5c0,0,0.7,0.1,0.6,0.4l-1,2.8c-0.3,0.2-0.7,0.3-1.1,0.2
					C57.6,53.7,29.6,47.6,0.2,63.8z"/>
			</g>
			<g>
				<path class="st0" d="M126.8,33.8c0,5.2-5.9,6.3-9.4,6.5c0.1,1.6,1.3,2.2,3.5,2.2c1.6-0.1,3.1-0.6,4.4-1.5l1.6,4
					c-2,1.4-4.5,2.1-6.9,2c-5.1,0-8.8-3.1-8.8-8.5c0-5.2,3.1-10.2,9.2-10.2C124.3,28.2,126.8,30,126.8,33.8z M120.2,32.4
					c-1.8,0-3,1.8-3.1,4.2c1.9-0.1,4.5-1,4.5-2.8c0.1-0.7-0.5-1.4-1.2-1.5C120.3,32.4,120.2,32.4,120.2,32.4z"/>
			</g>
			<g>
				<path class="st0" d="M135,21.4v18.5c0,1.6,0.4,2.4,1.6,2.4c0.7-0.1,1.4-0.3,2.1-0.6l1.3,4c-1.5,0.9-3.2,1.3-5,1.3
					c-5.6,0-5.9-3.2-5.9-6.6v-19L135,21.4z"/>
			</g>
			<g>
				<path class="st0" d="M95.4,42.4l8.2-9.4h-6.1c-2.4,0-2.4-4.1-2.4-4.1h15.4V33l-8.3,9.4h6.2c2.9,0,2.2,4.1,2.2,4.1H95.4V42.4z"/>
			</g>
			<g>
				<path class="st0" d="M68.2,28.3c-5.3,0-9,3.1-9,9c0,4.2,2.4,7.5,5.3,8.4l0,0c1.7,0.4,3.5,0.4,5.2-0.1V47c0,0.6,0,1.2,0,1.7
					c0.1,1-0.4,2-1.3,2.5c-0.6,0.4-1.3,0.6-2,0.5c-1.7,0-3.4-0.3-5-1l-1,3.6c2.1,1,4.5,1.5,6.8,1.5c3.1,0,5.1-1,6.4-2.7
					c1-1.6,1.6-3.4,1.7-5.3c0-0.2,0-0.4,0.1-0.5c0.1-1,0.1-3,0.1-3.8V29.7C73.2,28.8,70.7,28.3,68.2,28.3z M69.6,40.1
					c0.1,1.2-0.7,2.2-1.9,2.4c-0.1,0-0.2,0-0.2,0c-2.2,0-2.6-2.6-2.6-5.2c0-2.5,1-4.9,3.4-4.9c0.5,0,0.9,0.1,1.4,0.2L69.6,40.1z"/>
			</g>
			<g>
				<path class="st0" d="M93,42.7l0.4,3.7h-4.9l-0.2-1.6H88c-1,1.5-2.7,2.3-4.4,2.2c-5.3,0-6.6-4.2-6.6-8.5c0-6.1,3.1-10.1,9.3-10.1
					c2.3,0.1,4.6,0.5,6.7,1.4V42.7z M87.2,32.6c-0.5-0.2-1-0.2-1.6-0.2c-2.2,0-3,2.7-3,5.7c0,2.7,0.5,4.9,2.5,4.9
					c1.1,0.1,2-0.8,2.1-1.9c0,0,0-0.1,0-0.1V32.6z"/>
			</g>
			<g>
				<path class="st0" d="M9.4,27.4c2.4,0,4.7,0.8,6.5,2.3l-3,3.8c-0.9-0.8-2.1-1.3-3.3-1.3c-1.8,0-3.4,1.4-3.4,4.4s1.7,4.5,3.4,4.5
					c1.2,0,2.3-0.4,3.1-1.2l3.2,3.4c-1.8,1.7-4.1,2.7-6.6,2.7c-5.2,0-9.4-3.5-9.4-9.4S4.1,27.4,9.4,27.4z"/>
			</g>
			<g>
				<path class="st0" d="M17.2,21.1h6.2v24.6h-6.2V21.1z"/>
			</g>
			<g>
				<path class="st0" d="M24.9,27.9H31v11.9c0,1.1,0.5,2,1.7,2c1.1-0.1,2.2-0.7,2.9-1.6V27.9h6.1v17.8H36l-0.3-2
					c-1.3,1.5-3.2,2.3-5.2,2.4c-4,0-5.6-2.3-5.6-6.5L24.9,27.9z"/>
			</g>
			<g>
				<path class="st0" d="M58.9,43.7c-1.2-1.9-1.8-4.1-1.8-6.3c-0.1-2.5,0.7-5,2.2-7.1c-1.1-1.8-3.1-2.9-5.2-2.8
					c-1.8,0-3.6,0.8-4.8,2.2v-8.6h-6.2v24.6h5.4l0.4-2c1.3,1.5,3.3,2.4,5.3,2.3C56.1,46,57.8,45.2,58.9,43.7z M52.1,41.5
					c-1,0-2-0.4-2.7-1.2v-7c0.7-0.8,1.7-1.3,2.7-1.3c1.9,0,2.6,1.7,2.6,4.6S53.9,41.5,52.1,41.5z"/>
			</g>
			<g>
				<path class="st0" d="M153.9,66c-0.1,0-0.2-0.1-0.2-0.2v-50c0-0.1,0.1-0.2,0.2-0.2s0.2,0.1,0.2,0.2v50
					C154.2,65.9,154.1,66,153.9,66z"/>
			</g>
		</g>
	</g>
</g>
</svg>
