<svg xmlns="http://www.w3.org/2000/svg" viewBox="0 0 86.2 104.63"><defs><style>.cls-1{fill:#fff;}</style></defs><title>Asset 33servicios</title><g id="Layer_2" data-name="Layer 2"><g id="Layer_1-2" data-name="Layer 1"><path class="cls-1" d="M68,20.64a33.44,33.44,0,0,1,8.59,20.91h6.19a39.59,39.59,0,0,0-10.4-25.29Zm8.53,24.25A33,33,0,0,1,68,65.64L72.37,70A39.63,39.63,0,0,0,82.82,44.89H76.57ZM18.21,65.64A33.39,33.39,0,0,1,9.58,44.89H3.39A39.63,39.63,0,0,0,13.84,70ZM9.64,41.55a32.93,32.93,0,0,1,8.53-20.91l-4.38-4.38A39.62,39.62,0,0,0,3.39,41.55H9.64ZM70.07,13.88A39.61,39.61,0,0,0,44.77,3.37V9.57a33.42,33.42,0,0,1,20.91,8.69ZM16.23,72.4A39.75,39.75,0,0,0,70,72.4c-3-2.74-7.38-6-5.51-7.91a30.23,30.23,0,1,0-42.74,0C23.59,66.34,19.26,69.65,16.23,72.4Zm25.21-69a39.61,39.61,0,0,0-25.3,10.51l4.38,4.38A33.45,33.45,0,0,1,41.42,9.57V3.37Zm-28.83,89,8-1.4a3.63,3.63,0,0,1,4.16,2.39c.55,1.55,2.88,7.82,2.88,7.82l9-15.52a43.08,43.08,0,1,1,32.47-8.26l7.76,13.47c1.77,3.07-1.3,5.2-3.51,4.8,0,0-6.48-1.12-8.09-1.42a.33.33,0,0,0-.4.21c-.53,1.49-2.67,7.29-2.82,7.71-.74,2.13-4.14,3.75-5.92.67L48.23,89.2c1.16-.14,2.3-.32,3.42-.54l7.21,12.58s2.32-6.29,2.88-7.82A3.62,3.62,0,0,1,65.9,91l8,1.4-7.52-13a42.82,42.82,0,0,1-23.29,6.83c-1,0-2,0-2.94-.09l-9.78,16.8c-1.78,3.08-5.18,1.46-5.92-.67-.15-.42-2.29-6.23-2.82-7.71a.33.33,0,0,0-.4-.21c-1.62.29-8.09,1.42-8.09,1.42-2.22.4-5.28-1.73-3.51-4.8L15.9,80.12c.88.67,1.8,1.31,2.74,1.92ZM49.2,39.17l15.86-6.6a1.67,1.67,0,0,1,1.29,3.09l-16,6.68c0,.25,0,.51,0,.77a7.25,7.25,0,1,1-1.16-3.93Zm-6.1,0A3.9,3.9,0,1,0,47,43.1,3.9,3.9,0,0,0,43.1,39.19Z"/></g></g></svg>